<?xml version="1.0"?>
<svg width="250mm" height="200mm" viewBox="0 0   2500    1500"
     xmlns="http://www.w3.org/2000/svg"
     xmlns:xlink="http://www.w3.org/1999/xlink"
     xmlns:ev="http://www.w3.org/2001/xml-events">
<g font-family="Verdana" font-size="8" >
  <text x="     1" y="     1">ERROR - COULD NOT COMPLETE DRAWING! Examine ERR file for possible explanation. Last error message is:   "Error: No node connection found after the following object: 2ND STORY_A:364 ROOM"</text>
  <rect x="   200" y="    20" width="     1" height="     1" style = "fill:wheat; stroke: Black;"/>   149
  <text x="   202" y="    14">2ND STORY_A ZONE SPLITTER</text>
  <rect x="   200" y="    20" width="     1" height="     1" style = "fill:wheat; stroke: Black;"/>   262
  <text x="   202" y="    14">2ND STORY_A:364 ROOM VAV NOREHEAT</text>
  <rect x="   200" y="    20" width="     1" height="     1" style = "fill:lawngreen; stroke: Black;"/>   270
  <text x="   202" y="    14">2ND STORY_A OA MIXING BOX</text>
  <rect x="   200" y="    20" width="     1" height="     1" style = "fill:skyblue; stroke: Black;"/>   277
  <text x="   202" y="    14">2ND STORY_A COOLING COIL</text>
  <rect x="   200" y="    20" width="     1" height="     1" style = "fill:silver; stroke: Black;"/>   294
  <text x="   202" y="    14">2ND STORY_A SUPPLY FAN</text>
  <rect x="   200" y="    20" width="     1" height="     1" style = "fill:chartreuse; stroke: Black;"/>   418
  <text x="   202" y="    14">2ND STORY_A:364 ROOM</text>
  <line x1="   201" y1="    20" x2="   200" y2="    20" style = "stroke: Black;"/>
  <line x1="   201" y1="    20" x2="   200" y2="    20" style = "stroke: Black;"/>
  <line x1="   201" y1="    20" x2="   200" y2="    20" style = "stroke: Black;"/>
  <line x1="   201" y1="    20" x2="   200" y2="    20" style = "stroke: Black;"/>
  <line x1="   201" y1="    20" x2="   200" y2="    20" style = "stroke: Black;"/>
  <text x="   200" y="    61">Unused Non-Parent Objects:</text>
  <text x="   220" y="    81">OutdoorAir:NodeList</text>
  <text x="   220" y="   101">OutdoorAir:NodeList</text>
  <text x="   220" y="   121">OutdoorAir:NodeList</text>
  <text x="   220" y="   141">OutdoorAir:NodeList</text>
  <text x="   220" y="   161">OutdoorAir:NodeList</text>
  <text x="   220" y="   181">OutdoorAir:NodeList</text>
  <text x="   220" y="   201">OutdoorAir:Node</text>
  <text x="   220" y="   221">CONDENSER WATER LOOP CONDENSER WATER TEMP MANAGER</text>
  <text x="   220" y="   241">CHILLED WATER LOOP CHILLED WATER TEMP MANAGER</text>
  <text x="   220" y="   261">CHILLED WATER LOOP CHILLED WATER TEMP MANAGER</text>
  <text x="   220" y="   281">2ND STORY_A AHU OUTLET SETPOINT</text>
  <text x="   220" y="   301">3RD STOREY AHU OUTLET SETPOINT</text>
  <text x="   220" y="   321">3RD STORY_A AHU OUTLET SETPOINT</text>
  <text x="   220" y="   341">2ND STOREY AHU OUTLET SETPOINT</text>
  <text x="   220" y="   361">LOWER 1ST STOREY AHU OUTLET SETPOINT</text>
  <text x="   220" y="   381">1ST STOREY AHU OUTLET SETPOINT</text>
  <text x="   220" y="   401">2ND STORY_A COOLING COIL AIR TEMP MANAGER</text>
  <text x="   220" y="   421">3RD STOREY COOLING COIL AIR TEMP MANAGER</text>
  <text x="   220" y="   441">3RD STORY_A COOLING COIL AIR TEMP MANAGER</text>
  <text x="   220" y="   461">2ND STOREY COOLING COIL AIR TEMP MANAGER</text>
  <text x="   220" y="   481">LOWER 1ST STOREY COOLING COIL AIR TEMP MANAGER</text>
  <text x="   220" y="   501">1ST STOREY COOLING COIL AIR TEMP MANAGER</text>
  <text x="   220" y="   521">CHILLED WATER LOOP CHILLED WATER SUPPLY SIDE BYPASS PIPE</text>
  <text x="   220" y="   541">CHILLED WATER LOOP CHILLED WATER SUPPLY OUTLET PIPE</text>
  <text x="   220" y="   561">CHILLED WATER LOOP CHILLED WATER DEMAND SIDE BYPASS PIPE</text>
  <text x="   220" y="   581">CHILLED WATER LOOP CHILLED WATER DEMAND OUTLET PIPE</text>
  <text x="   220" y="   601">CONDENSER WATER LOOP CONDENSER WATER SUPPLY OUTLET PIPE</text>
  <text x="   220" y="   621">CONDENSER WATER LOOP CONDENSER WATER SUPPLY SIDE BYPASS PIPE</text>
  <text x="   220" y="   641">CONDENSER WATER LOOP CONDENSER WATER DEMAND INLET PIPE</text>
  <text x="   220" y="   661">CONDENSER WATER LOOP CONDENSER WATER DEMAND SIDE BYPASS PIPE</text>
  <text x="   220" y="   681">CONDENSER WATER LOOP CONDENSER WATER DEMAND OUTLET PIPE</text>
  <text x="   220" y="   701">CHILLED WATER LOOP CHILLED WATER DEMAND SPLITTER</text>
  <text x="   220" y="   721">CHILLED WATER LOOP CHILLED WATER DEMAND MIXER</text>
  <text x="   220" y="   741">CHILLED WATER LOOP CHILLED WATER SUPPLY SPLITTER</text>
  <text x="   220" y="   761">CHILLED WATER LOOP CHILLED WATER SUPPLY MIXER</text>
  <text x="   220" y="   781">CONDENSER WATER LOOP CONDENSER WATER DEMAND SPLITTER</text>
  <text x="   220" y="   801">CONDENSER WATER LOOP CONDENSER WATER DEMAND MIXER</text>
  <text x="   220" y="   821">CONDENSER WATER LOOP CONDENSER WATER SUPPLY SPLITTER</text>
  <text x="   220" y="   841">CONDENSER WATER LOOP CONDENSER WATER SUPPLY MIXER</text>
  <text x="   220" y="   861">2ND STORY_A:384 ROOM</text>
  <text x="   220" y="   881">2ND STORY_A:359 ROOM</text>
  <text x="   220" y="   901">3RD STOREY:415 ROOM</text>
  <text x="   220" y="   921">3RD STORY_A:419 ROOM</text>
  <text x="   220" y="   941">2ND STOREY:197 ROOM</text>
  <text x="   220" y="   961">2ND STOREY:206 ROOM</text>
  <text x="   220" y="   981">LOWER 1ST STOREY:354 ROOM</text>
  <text x="   220" y="  1001">LOWER 1ST STOREY:127 ROOM</text>
  <text x="   220" y="  1021">2ND STORY_A:371 ROOM</text>
  <text x="   220" y="  1041">1ST STOREY:126 ROOM</text>
  <text x="   220" y="  1061">3RD STOREY:318 ROOM</text>
  <text x="   220" y="  1081">1ST STOREY:420 ROOM</text>
  <text x="   220" y="  1101">2ND STOREY:194 ROOM</text>
  <text x="   220" y="  1121">2ND STORY_A:367 ROOM</text>
  <text x="   220" y="  1141">3RD STOREY:291 ROOM</text>
  <text x="   220" y="  1161">3RD STOREY:320 ROOM</text>
  <text x="   220" y="  1181">LOWER 1ST STOREY:143 ROOM</text>
  <text x="   220" y="  1201">2ND STOREY:392 ROOM</text>
  <text x="   220" y="  1221">2ND STOREY:249 ROOM</text>
  <text x="   220" y="  1241">3RD STOREY:308 ROOM</text>
  <text x="   220" y="  1261">1ST STOREY:236 ROOM</text>
  <text x="   220" y="  1281">1ST STOREY:123 ROOM</text>
  <text x="   220" y="  1301">1ST STOREY:44 ROOM</text>
  <text x="   220" y="  1321">3RD STOREY:310 ROOM</text>
  <text x="   220" y="  1341">1ST STOREY:99 ROOM</text>
  <text x="   220" y="  1361">3RD STORY_A:380 ROOM</text>
  <text x="   220" y="  1381">LOWER 1ST STOREY:129 ROOM</text>
  <text x="   220" y="  1401">LOWER 1ST STOREY:134 ROOM</text>
  <text x="   220" y="  1421">2ND STOREY:223 ROOM</text>
  <text x="   220" y="  1441">3RD STOREY:309 ROOM</text>
  <text x="   220" y="  1461">2ND STOREY:169 ROOM</text>
  <text x="   220" y="  1481">3RD STOREY:305 ROOM</text>
  <text x="   220" y="  1501">2ND STOREY:234 ROOM</text>
  <text x="   220" y="  1521">2ND STOREY:240 ROOM</text>
  <text x="   220" y="  1541">2ND STOREY:252 ROOM</text>
  <text x="   220" y="  1561">1ST STOREY:103 ROOM</text>
  <text x="   220" y="  1581">LOWER 1ST STOREY:142 ROOM</text>
  <text x="   220" y="  1601">LOWER 1ST STOREY:135 ROOM</text>
  <text x="   220" y="  1621">1ST STOREY:34 ROOM</text>
  <text x="   220" y="  1641">3RD STOREY:410 ROOM</text>
  <text x="   220" y="  1661">3RD STOREY:319 ROOM</text>
  <text x="   220" y="  1681">3RD STOREY:347 ROOM</text>
  <text x="   220" y="  1701">3RD STOREY:414 ROOM</text>
  <text x="   220" y="  1721">2ND STOREY:417 ROOM</text>
  <text x="   220" y="  1741">2ND STORY_A:370 ROOM</text>
  <text x="   220" y="  1761">3RD STOREY:298 ROOM</text>
  <text x="   220" y="  1781">2ND STORY_A:376 ROOM</text>
  <text x="   220" y="  1801">3RD STORY_A:381 ROOM</text>
  <text x="   220" y="  1821">2ND STORY_A:365 ROOM</text>
  <text x="   220" y="  1841">2ND STOREY:408 ROOM</text>
  <text x="   220" y="  1861">2ND STOREY:342 ROOM</text>
  <text x="   220" y="  1881">2ND STOREY:168 ROOM</text>
  <text x="   220" y="  1901">2ND STOREY:176 ROOM</text>
  <text x="   220" y="  1921">2ND STOREY:209 ROOM</text>
  <text x="   220" y="  1941">2ND STOREY:242 ROOM</text>
  <text x="   220" y="  1961">3RD STOREY:300 ROOM</text>
  <text x="   220" y="  1981">1ST STOREY:122 ROOM</text>
  <text x="   220" y="  2001">3RD STORY_A:382 ROOM</text>
  <text x="   220" y="  2021">2ND STORY_A:385 ROOM</text>
  <text x="   220" y="  2041">1ST STOREY:113 ROOM</text>
  <text x="   220" y="  2061">1ST STOREY:125 ROOM</text>
  <text x="   220" y="  2081">3RD STOREY:411 ROOM</text>
  <text x="   220" y="  2101">3RD STOREY:293 ROOM</text>
  <text x="   220" y="  2121">3RD STORY_A:387 ROOM</text>
  <text x="   220" y="  2141">3RD STOREY:284 ROOM</text>
  <text x="   220" y="  2161">3RD STOREY:316 ROOM</text>
  <text x="   220" y="  2181">2ND STOREY:181 ROOM</text>
  <text x="   220" y="  2201">LOWER 1ST STOREY:144 ROOM</text>
  <text x="   220" y="  2221">1ST STOREY:348 ROOM</text>
  <text x="   220" y="  2241">3RD STORY_A:378 ROOM</text>
  <text x="   220" y="  2261">2ND STOREY:245 ROOM</text>
  <text x="   220" y="  2281">2ND STOREY:251 ROOM</text>
  <text x="   220" y="  2301">3RD STOREY:283 ROOM</text>
  <text x="   220" y="  2321">3RD STOREY:405 ROOM</text>
  <text x="   220" y="  2341">3RD STORY_A:377 ROOM</text>
  <text x="   220" y="  2361">2ND STOREY:241 ROOM</text>
  <text x="   220" y="  2381">2ND STOREY:167 ROOM</text>
  <text x="   220" y="  2401">2ND STOREY:211 ROOM</text>
  <text x="   220" y="  2421">2ND STOREY:253 ROOM</text>
  <text x="   220" y="  2441">1ST STOREY:40 ROOM</text>
  <text x="   220" y="  2461">3RD STOREY:288 ROOM</text>
  <text x="   220" y="  2481">2ND STOREY:195 ROOM</text>
  <text x="   220" y="  2501">LOWER 1ST STOREY:130 ROOM</text>
  <text x="   220" y="  2521">1ST STOREY:98 ROOM</text>
  <text x="   220" y="  2541">1ST STOREY:100 ROOM</text>
  <text x="   220" y="  2561">2ND STORY_A:366 ROOM</text>
  <text x="   220" y="  2581">2ND STOREY:224 ROOM</text>
  <text x="   220" y="  2601">3RD STOREY:426 ROOM</text>
  <text x="   220" y="  2621">LOWER 1ST STOREY:356 ROOM</text>
  <text x="   220" y="  2641">2ND STOREY:225 ROOM</text>
  <text x="   220" y="  2661">LOWER 1ST STOREY:139 ROOM</text>
  <text x="   220" y="  2681">1ST STOREY:102 ROOM</text>
  <text x="   220" y="  2701">1ST STOREY:33 ROOM</text>
  <text x="   220" y="  2721">3RD STORY_A:379 ROOM</text>
  <text x="   220" y="  2741">2ND STORY_A:368 ROOM</text>
  <text x="   220" y="  2761">2ND STORY_A:369 ROOM</text>
  <text x="   220" y="  2781">3RD STOREY:294 ROOM</text>
  <text x="   220" y="  2801">3RD STORY_A:412 ROOM</text>
  <text x="   220" y="  2821">LOWER 1ST STOREY:235 ROOM</text>
  <text x="   220" y="  2841">3RD STOREY:285 ROOM</text>
  <text x="   220" y="  2861">2ND STOREY:173 ROOM</text>
  <text x="   220" y="  2881">3RD STOREY:302 ROOM</text>
  <text x="   220" y="  2901">2ND STOREY:203 ROOM</text>
  <text x="   220" y="  2921">3RD STOREY:301 ROOM</text>
  <text x="   220" y="  2941">2ND STORY_A:375 ROOM</text>
  <text x="   220" y="  2961">1ST STOREY:421 ROOM</text>
  <text x="   220" y="  2981">LOWER 1ST STOREY:128 ROOM</text>
  <text x="   220" y="  3001">1ST STOREY:237 ROOM</text>
  <text x="   220" y="  3021">3RD STOREY ZONE SPLITTER</text>
  <text x="   220" y="  3041">3RD STORY_A ZONE SPLITTER</text>
  <text x="   220" y="  3061">2ND STOREY ZONE SPLITTER</text>
  <text x="   220" y="  3081">LOWER 1ST STOREY ZONE SPLITTER</text>
  <text x="   220" y="  3101">1ST STOREY ZONE SPLITTER</text>
  <text x="   220" y="  3121">2ND STORY_A:384 ROOM VAV NOREHEAT</text>
  <text x="   220" y="  3141">2ND STORY_A:359 ROOM VAV NOREHEAT</text>
  <text x="   220" y="  3161">3RD STOREY:415 ROOM VAV NOREHEAT</text>
  <text x="   220" y="  3181">3RD STORY_A:419 ROOM VAV NOREHEAT</text>
  <text x="   220" y="  3201">2ND STOREY:197 ROOM VAV NOREHEAT</text>
  <text x="   220" y="  3221">2ND STOREY:206 ROOM VAV NOREHEAT</text>
  <text x="   220" y="  3241">LOWER 1ST STOREY:354 ROOM VAV NOREHEAT</text>
  <text x="   220" y="  3261">LOWER 1ST STOREY:127 ROOM VAV NOREHEAT</text>
  <text x="   220" y="  3281">2ND STORY_A:371 ROOM VAV NOREHEAT</text>
  <text x="   220" y="  3301">1ST STOREY:126 ROOM VAV NOREHEAT</text>
  <text x="   220" y="  3321">3RD STOREY:318 ROOM VAV NOREHEAT</text>
  <text x="   220" y="  3341">1ST STOREY:420 ROOM VAV NOREHEAT</text>
  <text x="   220" y="  3361">2ND STOREY:194 ROOM VAV NOREHEAT</text>
  <text x="   220" y="  3381">2ND STORY_A:367 ROOM VAV NOREHEAT</text>
  <text x="   220" y="  3401">3RD STOREY:291 ROOM VAV NOREHEAT</text>
  <text x="   220" y="  3421">3RD STOREY:320 ROOM VAV NOREHEAT</text>
  <text x="   220" y="  3441">LOWER 1ST STOREY:143 ROOM VAV NOREHEAT</text>
  <text x="   220" y="  3461">2ND STOREY:392 ROOM VAV NOREHEAT</text>
  <text x="   220" y="  3481">2ND STOREY:249 ROOM VAV NOREHEAT</text>
  <text x="   220" y="  3501">3RD STOREY:308 ROOM VAV NOREHEAT</text>
  <text x="   220" y="  3521">1ST STOREY:236 ROOM VAV NOREHEAT</text>
  <text x="   220" y="  3541">1ST STOREY:123 ROOM VAV NOREHEAT</text>
  <text x="   220" y="  3561">1ST STOREY:44 ROOM VAV NOREHEAT</text>
  <text x="   220" y="  3581">3RD STOREY:310 ROOM VAV NOREHEAT</text>
  <text x="   220" y="  3601">1ST STOREY:99 ROOM VAV NOREHEAT</text>
  <text x="   220" y="  3621">3RD STORY_A:380 ROOM VAV NOREHEAT</text>
  <text x="   220" y="  3641">LOWER 1ST STOREY:129 ROOM VAV NOREHEAT</text>
  <text x="   220" y="  3661">LOWER 1ST STOREY:134 ROOM VAV NOREHEAT</text>
  <text x="   220" y="  3681">2ND STOREY:223 ROOM VAV NOREHEAT</text>
  <text x="   220" y="  3701">3RD STOREY:309 ROOM VAV NOREHEAT</text>
  <text x="   220" y="  3721">2ND STOREY:169 ROOM VAV NOREHEAT</text>
  <text x="   220" y="  3741">3RD STOREY:305 ROOM VAV NOREHEAT</text>
  <text x="   220" y="  3761">2ND STOREY:234 ROOM VAV NOREHEAT</text>
  <text x="   220" y="  3781">2ND STOREY:240 ROOM VAV NOREHEAT</text>
  <text x="   220" y="  3801">2ND STOREY:252 ROOM VAV NOREHEAT</text>
  <text x="   220" y="  3821">1ST STOREY:103 ROOM VAV NOREHEAT</text>
  <text x="   220" y="  3841">LOWER 1ST STOREY:142 ROOM VAV NOREHEAT</text>
  <text x="   220" y="  3861">LOWER 1ST STOREY:135 ROOM VAV NOREHEAT</text>
  <text x="   220" y="  3881">1ST STOREY:34 ROOM VAV NOREHEAT</text>
  <text x="   220" y="  3901">3RD STOREY:410 ROOM VAV NOREHEAT</text>
  <text x="   220" y="  3921">3RD STOREY:319 ROOM VAV NOREHEAT</text>
  <text x="   220" y="  3941">3RD STOREY:347 ROOM VAV NOREHEAT</text>
  <text x="   220" y="  3961">3RD STOREY:414 ROOM VAV NOREHEAT</text>
  <text x="   220" y="  3981">2ND STOREY:417 ROOM VAV NOREHEAT</text>
  <text x="   220" y="  4001">2ND STORY_A:370 ROOM VAV NOREHEAT</text>
  <text x="   220" y="  4021">3RD STOREY:298 ROOM VAV NOREHEAT</text>
  <text x="   220" y="  4041">2ND STORY_A:376 ROOM VAV NOREHEAT</text>
  <text x="   220" y="  4061">3RD STORY_A:381 ROOM VAV NOREHEAT</text>
  <text x="   220" y="  4081">2ND STORY_A:365 ROOM VAV NOREHEAT</text>
  <text x="   220" y="  4101">2ND STOREY:408 ROOM VAV NOREHEAT</text>
  <text x="   220" y="  4121">2ND STOREY:342 ROOM VAV NOREHEAT</text>
  <text x="   220" y="  4141">2ND STOREY:168 ROOM VAV NOREHEAT</text>
  <text x="   220" y="  4161">2ND STOREY:176 ROOM VAV NOREHEAT</text>
  <text x="   220" y="  4181">2ND STOREY:209 ROOM VAV NOREHEAT</text>
  <text x="   220" y="  4201">2ND STOREY:242 ROOM VAV NOREHEAT</text>
  <text x="   220" y="  4221">3RD STOREY:300 ROOM VAV NOREHEAT</text>
  <text x="   220" y="  4241">1ST STOREY:122 ROOM VAV NOREHEAT</text>
  <text x="   220" y="  4261">3RD STORY_A:382 ROOM VAV NOREHEAT</text>
  <text x="   220" y="  4281">2ND STORY_A:385 ROOM VAV NOREHEAT</text>
  <text x="   220" y="  4301">1ST STOREY:113 ROOM VAV NOREHEAT</text>
  <text x="   220" y="  4321">1ST STOREY:125 ROOM VAV NOREHEAT</text>
  <text x="   220" y="  4341">3RD STOREY:411 ROOM VAV NOREHEAT</text>
  <text x="   220" y="  4361">3RD STOREY:293 ROOM VAV NOREHEAT</text>
  <text x="   220" y="  4381">3RD STORY_A:387 ROOM VAV NOREHEAT</text>
  <text x="   220" y="  4401">3RD STOREY:284 ROOM VAV NOREHEAT</text>
  <text x="   220" y="  4421">3RD STOREY:316 ROOM VAV NOREHEAT</text>
  <text x="   220" y="  4441">2ND STOREY:181 ROOM VAV NOREHEAT</text>
  <text x="   220" y="  4461">LOWER 1ST STOREY:144 ROOM VAV NOREHEAT</text>
  <text x="   220" y="  4481">1ST STOREY:348 ROOM VAV NOREHEAT</text>
  <text x="   220" y="  4501">3RD STORY_A:378 ROOM VAV NOREHEAT</text>
  <text x="   220" y="  4521">2ND STOREY:245 ROOM VAV NOREHEAT</text>
  <text x="   220" y="  4541">2ND STOREY:251 ROOM VAV NOREHEAT</text>
  <text x="   220" y="  4561">3RD STOREY:283 ROOM VAV NOREHEAT</text>
  <text x="   220" y="  4581">3RD STOREY:405 ROOM VAV NOREHEAT</text>
  <text x="   220" y="  4601">3RD STORY_A:377 ROOM VAV NOREHEAT</text>
  <text x="   220" y="  4621">2ND STOREY:241 ROOM VAV NOREHEAT</text>
  <text x="   220" y="  4641">2ND STOREY:167 ROOM VAV NOREHEAT</text>
  <text x="   220" y="  4661">2ND STOREY:211 ROOM VAV NOREHEAT</text>
  <text x="   220" y="  4681">2ND STOREY:253 ROOM VAV NOREHEAT</text>
  <text x="   220" y="  4701">1ST STOREY:40 ROOM VAV NOREHEAT</text>
  <text x="   220" y="  4721">3RD STOREY:288 ROOM VAV NOREHEAT</text>
  <text x="   220" y="  4741">2ND STOREY:195 ROOM VAV NOREHEAT</text>
  <text x="   220" y="  4761">LOWER 1ST STOREY:130 ROOM VAV NOREHEAT</text>
  <text x="   220" y="  4781">1ST STOREY:98 ROOM VAV NOREHEAT</text>
  <text x="   220" y="  4801">1ST STOREY:100 ROOM VAV NOREHEAT</text>
  <text x="   220" y="  4821">2ND STORY_A:366 ROOM VAV NOREHEAT</text>
  <text x="   220" y="  4841">2ND STOREY:224 ROOM VAV NOREHEAT</text>
  <text x="   220" y="  4861">3RD STOREY:426 ROOM VAV NOREHEAT</text>
  <text x="   220" y="  4881">LOWER 1ST STOREY:356 ROOM VAV NOREHEAT</text>
  <text x="   220" y="  4901">2ND STOREY:225 ROOM VAV NOREHEAT</text>
  <text x="   220" y="  4921">LOWER 1ST STOREY:139 ROOM VAV NOREHEAT</text>
  <text x="   220" y="  4941">1ST STOREY:102 ROOM VAV NOREHEAT</text>
  <text x="   220" y="  4961">1ST STOREY:33 ROOM VAV NOREHEAT</text>
  <text x="   220" y="  4981">3RD STORY_A:379 ROOM VAV NOREHEAT</text>
  <text x="   220" y="  5001">2ND STORY_A:368 ROOM VAV NOREHEAT</text>
  <text x="   220" y="  5021">2ND STORY_A:369 ROOM VAV NOREHEAT</text>
  <text x="   220" y="  5041">3RD STOREY:294 ROOM VAV NOREHEAT</text>
  <text x="   220" y="  5061">3RD STORY_A:412 ROOM VAV NOREHEAT</text>
  <text x="   220" y="  5081">LOWER 1ST STOREY:235 ROOM VAV NOREHEAT</text>
  <text x="   220" y="  5101">3RD STOREY:285 ROOM VAV NOREHEAT</text>
  <text x="   220" y="  5121">2ND STOREY:173 ROOM VAV NOREHEAT</text>
  <text x="   220" y="  5141">3RD STOREY:302 ROOM VAV NOREHEAT</text>
  <text x="   220" y="  5161">2ND STOREY:203 ROOM VAV NOREHEAT</text>
  <text x="   220" y="  5181">3RD STOREY:301 ROOM VAV NOREHEAT</text>
  <text x="   220" y="  5201">2ND STORY_A:375 ROOM VAV NOREHEAT</text>
  <text x="   220" y="  5221">1ST STOREY:421 ROOM VAV NOREHEAT</text>
  <text x="   220" y="  5241">LOWER 1ST STOREY:128 ROOM VAV NOREHEAT</text>
  <text x="   220" y="  5261">1ST STOREY:237 ROOM VAV NOREHEAT</text>
  <text x="   220" y="  5281">2ND STORY_A ZONE MIXER</text>
  <text x="   220" y="  5301">3RD STOREY ZONE MIXER</text>
  <text x="   220" y="  5321">3RD STORY_A ZONE MIXER</text>
  <text x="   220" y="  5341">2ND STOREY ZONE MIXER</text>
  <text x="   220" y="  5361">LOWER 1ST STOREY ZONE MIXER</text>
  <text x="   220" y="  5381">1ST STOREY ZONE MIXER</text>
  <text x="   220" y="  5401">3RD STOREY OA MIXING BOX</text>
  <text x="   220" y="  5421">3RD STORY_A OA MIXING BOX</text>
  <text x="   220" y="  5441">2ND STOREY OA MIXING BOX</text>
  <text x="   220" y="  5461">LOWER 1ST STOREY OA MIXING BOX</text>
  <text x="   220" y="  5481">1ST STOREY OA MIXING BOX</text>
  <text x="   220" y="  5501">3RD STOREY COOLING COIL</text>
  <text x="   220" y="  5521">3RD STOREY COOLING COIL</text>
  <text x="   220" y="  5541">3RD STORY_A COOLING COIL</text>
  <text x="   220" y="  5561">3RD STORY_A COOLING COIL</text>
  <text x="   220" y="  5581">2ND STOREY COOLING COIL</text>
  <text x="   220" y="  5601">2ND STOREY COOLING COIL</text>
  <text x="   220" y="  5621">LOWER 1ST STOREY COOLING COIL</text>
  <text x="   220" y="  5641">LOWER 1ST STOREY COOLING COIL</text>
  <text x="   220" y="  5661">1ST STOREY COOLING COIL</text>
  <text x="   220" y="  5681">1ST STOREY COOLING COIL</text>
  <text x="   220" y="  5701">2ND STORY_A COOLING COIL CONTROLLER</text>
  <text x="   220" y="  5721">3RD STOREY COOLING COIL CONTROLLER</text>
  <text x="   220" y="  5741">3RD STORY_A COOLING COIL CONTROLLER</text>
  <text x="   220" y="  5761">2ND STOREY COOLING COIL CONTROLLER</text>
  <text x="   220" y="  5781">LOWER 1ST STOREY COOLING COIL CONTROLLER</text>
  <text x="   220" y="  5801">1ST STOREY COOLING COIL CONTROLLER</text>
  <text x="   220" y="  5821">3RD STOREY SUPPLY FAN</text>
  <text x="   220" y="  5841">3RD STORY_A SUPPLY FAN</text>
  <text x="   220" y="  5861">2ND STOREY SUPPLY FAN</text>
  <text x="   220" y="  5881">LOWER 1ST STOREY SUPPLY FAN</text>
  <text x="   220" y="  5901">1ST STOREY SUPPLY FAN</text>
  <text x="   220" y="  5921">2ND STORY_A OA CONTROLLER</text>
  <text x="   220" y="  5941">3RD STOREY OA CONTROLLER</text>
  <text x="   220" y="  5961">3RD STORY_A OA CONTROLLER</text>
  <text x="   220" y="  5981">2ND STOREY OA CONTROLLER</text>
  <text x="   220" y="  6001">LOWER 1ST STOREY OA CONTROLLER</text>
  <text x="   220" y="  6021">1ST STOREY OA CONTROLLER</text>
  <text x="   220" y="  6041">CHILLER%</text>
  <text x="   220" y="  6061">CHILLER%</text>
  <text x="   220" y="  6081">TOWER%</text>
  <text x="   220" y="  6101">CHILLED WATER LOOP CHILLED WATER PRIMARY SUPPLY PUMP</text>
  <text x="   220" y="  6121">CHILLED WATER LOOP CHILLED WATER SECONDARY PUMP</text>
  <text x="   220" y="  6141">CONDENSER WATER LOOP CONDENSER WATER SUPPLY PUMP</text>
  <text x="   220" y="  6161">2ND STORY_A:359 ROOM</text>
  <text x="   220" y="  6181">3RD STOREY:415 ROOM</text>
  <text x="   220" y="  6201">3RD STORY_A:419 ROOM</text>
  <text x="   220" y="  6221">2ND STOREY:197 ROOM</text>
  <text x="   220" y="  6241">2ND STOREY:206 ROOM</text>
  <text x="   220" y="  6261">LOWER 1ST STOREY:354 ROOM</text>
  <text x="   220" y="  6281">LOWER 1ST STOREY:127 ROOM</text>
  <text x="   220" y="  6301">2ND STORY_A:371 ROOM</text>
  <text x="   220" y="  6321">1ST STOREY:126 ROOM</text>
  <text x="   220" y="  6341">3RD STOREY:318 ROOM</text>
  <text x="   220" y="  6361">1ST STOREY:420 ROOM</text>
  <text x="   220" y="  6381">2ND STOREY:194 ROOM</text>
  <text x="   220" y="  6401">2ND STORY_A:367 ROOM</text>
  <text x="   220" y="  6421">3RD STOREY:291 ROOM</text>
  <text x="   220" y="  6441">3RD STOREY:320 ROOM</text>
  <text x="   220" y="  6461">LOWER 1ST STOREY:143 ROOM</text>
  <text x="   220" y="  6481">2ND STOREY:392 ROOM</text>
  <text x="   220" y="  6501">2ND STOREY:249 ROOM</text>
  <text x="   220" y="  6521">3RD STOREY:308 ROOM</text>
  <text x="   220" y="  6541">1ST STOREY:236 ROOM</text>
  <text x="   220" y="  6561">1ST STOREY:123 ROOM</text>
  <text x="   220" y="  6581">1ST STOREY:44 ROOM</text>
  <text x="   220" y="  6601">3RD STOREY:310 ROOM</text>
  <text x="   220" y="  6621">1ST STOREY:99 ROOM</text>
  <text x="   220" y="  6641">3RD STORY_A:380 ROOM</text>
  <text x="   220" y="  6661">LOWER 1ST STOREY:129 ROOM</text>
  <text x="   220" y="  6681">LOWER 1ST STOREY:134 ROOM</text>
  <text x="   220" y="  6701">2ND STOREY:223 ROOM</text>
  <text x="   220" y="  6721">3RD STOREY:309 ROOM</text>
  <text x="   220" y="  6741">2ND STOREY:169 ROOM</text>
  <text x="   220" y="  6761">3RD STOREY:305 ROOM</text>
  <text x="   220" y="  6781">2ND STOREY:234 ROOM</text>
  <text x="   220" y="  6801">2ND STOREY:240 ROOM</text>
  <text x="   220" y="  6821">2ND STOREY:252 ROOM</text>
  <text x="   220" y="  6841">1ST STOREY:103 ROOM</text>
  <text x="   220" y="  6861">LOWER 1ST STOREY:142 ROOM</text>
  <text x="   220" y="  6881">LOWER 1ST STOREY:135 ROOM</text>
  <text x="   220" y="  6901">1ST STOREY:34 ROOM</text>
  <text x="   220" y="  6921">3RD STOREY:410 ROOM</text>
  <text x="   220" y="  6941">3RD STOREY:319 ROOM</text>
  <text x="   220" y="  6961">3RD STOREY:347 ROOM</text>
  <text x="   220" y="  6981">3RD STOREY:414 ROOM</text>
  <text x="   220" y="  7001">2ND STOREY:417 ROOM</text>
  <text x="   220" y="  7021">2ND STORY_A:370 ROOM</text>
  <text x="   220" y="  7041">3RD STOREY:298 ROOM</text>
  <text x="   220" y="  7061">2ND STORY_A:376 ROOM</text>
  <text x="   220" y="  7081">3RD STORY_A:381 ROOM</text>
  <text x="   220" y="  7101">2ND STORY_A:365 ROOM</text>
  <text x="   220" y="  7121">2ND STOREY:408 ROOM</text>
  <text x="   220" y="  7141">2ND STOREY:342 ROOM</text>
  <text x="   220" y="  7161">2ND STOREY:168 ROOM</text>
  <text x="   220" y="  7181">2ND STOREY:176 ROOM</text>
  <text x="   220" y="  7201">2ND STOREY:209 ROOM</text>
  <text x="   220" y="  7221">2ND STOREY:242 ROOM</text>
  <text x="   220" y="  7241">3RD STOREY:300 ROOM</text>
  <text x="   220" y="  7261">1ST STOREY:122 ROOM</text>
  <text x="   220" y="  7281">3RD STORY_A:382 ROOM</text>
  <text x="   220" y="  7301">2ND STORY_A:385 ROOM</text>
  <text x="   220" y="  7321">1ST STOREY:113 ROOM</text>
  <text x="   220" y="  7341">1ST STOREY:125 ROOM</text>
  <text x="   220" y="  7361">3RD STOREY:411 ROOM</text>
  <text x="   220" y="  7381">3RD STOREY:293 ROOM</text>
  <text x="   220" y="  7401">3RD STORY_A:387 ROOM</text>
  <text x="   220" y="  7421">3RD STOREY:284 ROOM</text>
  <text x="   220" y="  7441">3RD STOREY:316 ROOM</text>
  <text x="   220" y="  7461">2ND STOREY:181 ROOM</text>
  <text x="   220" y="  7481">LOWER 1ST STOREY:144 ROOM</text>
  <text x="   220" y="  7501">1ST STOREY:348 ROOM</text>
  <text x="   220" y="  7521">3RD STORY_A:378 ROOM</text>
  <text x="   220" y="  7541">2ND STOREY:245 ROOM</text>
  <text x="   220" y="  7561">2ND STOREY:251 ROOM</text>
  <text x="   220" y="  7581">3RD STOREY:283 ROOM</text>
  <text x="   220" y="  7601">3RD STOREY:405 ROOM</text>
  <text x="   220" y="  7621">3RD STORY_A:377 ROOM</text>
  <text x="   220" y="  7641">2ND STOREY:241 ROOM</text>
  <text x="   220" y="  7661">2ND STOREY:167 ROOM</text>
  <text x="   220" y="  7681">2ND STOREY:211 ROOM</text>
  <text x="   220" y="  7701">2ND STOREY:253 ROOM</text>
  <text x="   220" y="  7721">1ST STOREY:40 ROOM</text>
  <text x="   220" y="  7741">3RD STOREY:288 ROOM</text>
  <text x="   220" y="  7761">2ND STOREY:195 ROOM</text>
  <text x="   220" y="  7781">LOWER 1ST STOREY:130 ROOM</text>
  <text x="   220" y="  7801">1ST STOREY:98 ROOM</text>
  <text x="   220" y="  7821">1ST STOREY:100 ROOM</text>
  <text x="   220" y="  7841">2ND STORY_A:366 ROOM</text>
  <text x="   220" y="  7861">2ND STOREY:224 ROOM</text>
  <text x="   220" y="  7881">3RD STOREY:426 ROOM</text>
  <text x="   220" y="  7901">LOWER 1ST STOREY:356 ROOM</text>
  <text x="   220" y="  7921">2ND STOREY:225 ROOM</text>
  <text x="   220" y="  7941">LOWER 1ST STOREY:139 ROOM</text>
  <text x="   220" y="  7961">1ST STOREY:102 ROOM</text>
  <text x="   220" y="  7981">1ST STOREY:33 ROOM</text>
  <text x="   220" y="  8001">3RD STORY_A:379 ROOM</text>
  <text x="   220" y="  8021">2ND STORY_A:368 ROOM</text>
  <text x="   220" y="  8041">2ND STORY_A:369 ROOM</text>
  <text x="   220" y="  8061">3RD STOREY:294 ROOM</text>
  <text x="   220" y="  8081">3RD STORY_A:412 ROOM</text>
  <text x="   220" y="  8101">LOWER 1ST STOREY:235 ROOM</text>
  <text x="   220" y="  8121">3RD STOREY:285 ROOM</text>
  <text x="   220" y="  8141">2ND STOREY:173 ROOM</text>
  <text x="   220" y="  8161">3RD STOREY:302 ROOM</text>
  <text x="   220" y="  8181">2ND STOREY:203 ROOM</text>
  <text x="   220" y="  8201">3RD STOREY:301 ROOM</text>
  <text x="   220" y="  8221">2ND STORY_A:375 ROOM</text>
  <text x="   220" y="  8241">1ST STOREY:421 ROOM</text>
  <text x="   220" y="  8261">LOWER 1ST STOREY:128 ROOM</text>
  <text x="   220" y="  8281">1ST STOREY:237 ROOM</text>
  <text x="   200" y="  8321">
The following are not supported: objects related to controls, AirTerminal:SingleDuct:Uncontrolled, or ZoneHVAC:IdealLoadsAirSystem</text>
</g>
</svg>
